<svg viewBox="0 0 319 316" fill="none" xmlns="http://www.w3.org/2000/svg"><path d="m25.284 3.804 54.545 54.493c1.276 1.26 2.552 1.575 4.466 1.575H314.28c1.595 0 2.552-1.89.957-3.465L261.329 2.544c-1.276-1.26-2.552-1.89-5.104-1.89H26.56c-2.233 0-2.552 1.89-1.276 3.15ZM17.31 313.125c-.32 1.26.319 2.52 1.914 2.52h226.794c2.233 0 3.19-.945 3.828-2.835l68.58-218.604c.638-2.205-.319-2.835-2.233-2.835H88.761c-1.914 0-2.552.63-3.19 2.205L17.31 313.125ZM.085 250.126c0 2.52 3.19 2.52 3.828 0l51.993-167.26c.638-1.89.638-3.15-.957-4.725L3.275 27.427c-1.276-1.26-3.19-.63-3.19.945v221.754Z" fill="#850122"/></svg>