<svg xmlns="http://www.w3.org/2000/svg" viewBox="-19724.11 -153989.98 988.11 719.29"><path style="fill:#b92025;fill-opacity:1;stroke:#000;stroke-width:5.83874;stroke-dasharray:none;stroke-opacity:1" d="M921.823 560.807h33.908c8.116 0 16.247-.132 24.333.51a44.243 44.243 0 0 1 12.568 2.423 15.312 15.312 0 0 1 7.065 5.11 17.297 17.297 0 0 1 2.817 8.889 73.393 73.393 0 0 1-1.97 18.582c-3.3 15.4-6.554 30.814-9.882 46.199a84.53 84.53 0 0 1-6 18.231 25.807 25.807 0 0 1-11.269 11.678c-6.408 3.342-13.764 3.94-20.858 4.379-5.635.35-11.284.35-16.918.335q-7.488 35.427-14.962 70.839h-38.492zm20.435 85.289c2 0 4 .088 5.985-.073a3.59 3.59 0 0 0 2.846-1.358 14.699 14.699 0 0 0 1.562-4.641c3.007-14.597 6.043-29.194 9.021-43.689a2.16 2.16 0 0 0-2-2.408 49.804 49.804 0 0 0-6.247-.175q-5.576 26.099-11.152 52.286zM788.101 560.807h50.84c-1.868 15.195-3.867 30.39-5.838 45.57-2.467 18.83-5.342 37.602-8.35 56.345l.906-.102c3.532-12.714 6.89-25.487 10.495-38.2q9.094-31.85 18.523-63.628h50.841q-19.822 93.58-39.66 187.16h-30.244q12.232-57.482 24.464-114.95c-.628-.116-.993.103-1.11.628l-35.922 114.323h-31.617l12.816-116.147q-1.007-.19-1.08.7-12.276 57.716-24.567 115.447h-30.171q19.88-93.624 39.674-187.146Z" transform="translate(-19741.458 -154022.4)"/><path style="fill:#fff;stroke:#000;stroke-width:5.83874;stroke-dasharray:none;stroke-opacity:1" d="M592.65 561.317h29.69c8.48 0 16.96-.175 25.427.336a53.76 53.76 0 0 1 13.838 2.175 16.597 16.597 0 0 1 7.298 4.481c3.518 3.985 3.84 9.678 3.562 14.743-.467 7.634-2.365 15.064-3.868 22.552-1.095 5.124-2.088 10.218-3.24 15.4a33.34 33.34 0 0 1-9.576 16.976 24.42 24.42 0 0 1-11.415 5.561l-.234.905a18.173 18.173 0 0 1 8.408 5.3 15.619 15.619 0 0 1 2.73 8.45c.51 6.496-.73 12.948-2 19.283q-7.299 34.434-14.597 68.883h-38.23q8.89-42.331 17.794-84.662c.278-1.3-.992-2.263-2.145-2.38a57.234 57.234 0 0 0-6.014-.13q-9.284 43.57-18.553 87.128h-38.054zm31.222 32.566-7.445 35.529c2.57-.175 5.328.452 7.78-.599 1.46-1.124 1.665-3.167 2.146-4.831l5.722-27.428c.467-1.46-.963-2.554-2.277-2.627-1.956-.146-3.912.014-5.868-.044zM522.657 561.317H580.9l-6.584 31.165h-20.129l-2.817 13.575h19.253l-6.35 29.996h-19.296l-16.67 77.758h20.436l-6.817 32.565h-58.431zM422.859 561.317h38.52l-13.808 65.175h1.168c7.298-21.895 15.385-43.571 23.72-65.116h38.287q-9.123 21.807-18.158 43.659c-4.613 11.006-9.007 22.1-13.896 32.974a5.43 5.43 0 0 0-.117 1.635c0 9.415-.292 18.83-.409 28.245-.628 26.187-1.825 52.344-2.642 78.531h-39.236c1.46-30.493 3.795-60.942 6.335-91.362h-1.168l-19.253 91.347h-38.507zM227.48 561.317h38.054l-31.471 148.888c-.16 1.153-.89 2.511 0 3.533a5.299 5.299 0 0 0 4.043.978c1.27-.088 2.92-.248 3.562-1.46a22.815 22.815 0 0 0 1.912-6.481l30.872-145.443h37.106l-30.654 144.246a150.348 150.348 0 0 1-5.342 20.26 35.66 35.66 0 0 1-8.13 13.97 29.427 29.427 0 0 1-16.057 7.517 141.896 141.896 0 0 1-21.56 1.46c-5.547 0-11.108-.132-16.626-.672-5.517-.54-11.093-1.664-15.253-5.371-3.416-3.051-4.38-7.824-4.555-12.218a96.34 96.34 0 0 1 2.453-20.348q15.896-74.458 31.69-148.859zM128.425 561.288h31.004c7.386 0 14.772-.131 22.158.234a59.205 59.205 0 0 1 15.984 2.379 15.21 15.21 0 0 1 8.437 6.233 21.107 21.107 0 0 1 2.306 11.123c-.219 7.882-2.16 15.56-3.722 23.252-1.139 5.416-2.219 10.831-3.401 16.232a33.354 33.354 0 0 1-9.678 17.268 24.42 24.42 0 0 1-11.386 5.532l-.233.905c4.379 1.46 9.05 4.38 10.32 9.08 1.635 5.97.89 12.261-.088 18.26-1.167 6.657-2.73 13.24-4.072 19.852l-11.56 54.71h-38.318q8.758-41.383 17.414-82.765a10.685 10.685 0 0 0 .395-2.482 2.496 2.496 0 0 0-2.38-1.795c-1.927-.204-3.868 0-5.839-.102l-18.552 87.129h-38.01Zm31.194 32.595q-3.751 17.794-7.517 35.587h5.838a3.357 3.357 0 0 0 2.628-1.197 14.801 14.801 0 0 0 1.46-4.379c1.897-9.152 3.853-18.304 5.721-27.471.22-1.24-.992-2.131-2.087-2.277a54.008 54.008 0 0 0-6.043-.263zM45.063 561.288h74.444l-6.598 31.427H94.853L62.214 746.362H23.868q16.32-76.824 32.639-153.661H38.465q3.313-15.677 6.598-31.384zM712.767 560.106a179.541 179.541 0 0 1 27.252-1.08 79.26 79.26 0 0 1 16.918 1.78 17.035 17.035 0 0 1 9.531 5.84c2.453 3.24 3.022 7.444 3.066 11.385a96.047 96.047 0 0 1-2.219 18.056c-1.737 8.393-3.532 16.786-5.299 25.18h-37.338l5.313-25.778a1.941 1.941 0 0 0-.876-2.22 6.948 6.948 0 0 0-3.78-.54 4.54 4.54 0 0 0-3.343 1.27 10.904 10.904 0 0 0-1.46 4.38l-3.445 16.377c-.525 2.672-1.46 5.489-.525 8.19.817 2.422 3.08 3.882 5.05 5.313 5.84 3.824 11.678 7.575 17.254 11.677a57.643 57.643 0 0 1 9.648 8.554 18.436 18.436 0 0 1 4.175 8.933c.876 5.211 0 10.495-.934 15.633-1.46 7.883-3.27 15.707-4.89 23.545-1.635 7.488-3.007 15.05-5.08 22.435a71.203 71.203 0 0 1-5.43 14.495 24.946 24.946 0 0 1-10.656 10.51c-6.189 3.182-13.253 3.751-20.085 4.233a216.136 216.136 0 0 1-23.968 0 48.301 48.301 0 0 1-14.48-2.467 14.83 14.83 0 0 1-6.977-5.123 18.976 18.976 0 0 1-2.92-10.379c-.219-6.86 1.256-13.619 2.453-20.333q3.897-18.655 7.853-37.295h37.105l-8.174 39.411c-.321 1.577 1.46 2.438 2.73 2.467 1.663 0 3.678.19 4.991-1.036a15.4 15.4 0 0 0 2.015-5.941l6.189-29.194a13.852 13.852 0 0 0 .409-6.641c-.73-2.248-2.76-3.679-4.628-4.934-5.838-3.606-11.677-7.299-17.18-11.21a56.14 56.14 0 0 1-9.692-8.481 19.779 19.779 0 0 1-4.598-8.758 37.397 37.397 0 0 1 .525-14.422c1.212-6.467 2.642-12.89 3.927-19.326 1.707-8.306 3.24-16.7 6.305-24.64a31.266 31.266 0 0 1 9.036-13.429 31.836 31.836 0 0 1 16.232-6.408zM354.954 559.347a206.925 206.925 0 0 1 24.815 0c5.444.365 11.108.89 16.056 3.503a13.473 13.473 0 0 1 6.67 8.174c1.46 5.328.862 10.963.19 16.378-.875 6.437-2.35 12.758-3.678 19.107q-3.547 16.655-7.094 33.325h-36.696l9.342-44.579c.262-1.24-.905-2.19-2.03-2.35a8.758 8.758 0 0 0-5.37.57c-1.534 1.094-1.665 3.181-2.044 4.875q-11.97 56.752-23.968 113.505a1.97 1.97 0 0 0 1.065 2.481 8.904 8.904 0 0 0 5.4.102 3.27 3.27 0 0 0 2.03-2.233 46.272 46.272 0 0 0 1.59-6.408q4.176-19.516 8.336-39.017h36.638q-3.27 15.34-6.554 30.653c-2.073 9.415-3.752 18.976-6.977 28.084a39.412 39.412 0 0 1-7.167 13.254 24.158 24.158 0 0 1-9.474 6.598c-5.298 2.131-11.05 2.57-16.684 2.992a208.896 208.896 0 0 1-26.274-.116c-5.445-.438-11.138-1.066-15.926-3.883a13.269 13.269 0 0 1-6.116-9.59c-1.094-6.934.176-13.97 1.46-20.8 8.408-39.412 16.699-78.911 25.15-118.337a106.951 106.951 0 0 1 5.927-18.976 26.274 26.274 0 0 1 11.269-12.685c6.174-3.401 13.283-4.102 20.114-4.627zM789.43 357.91l41.834-.759c9.532.234 19.078.132 28.624.234a111.432 111.432 0 0 0 11.97-.248c3.503-.38 5.08-3.942 6.203-6.817-8.758-.467-17.428-.204-26.128-.555-17.341-.117-34.697 0-52.038 0-10.305-.087-20.61.321-30.916.146a56.928 56.928 0 0 0-.496 8.116c6.977-.307 13.969-.117 20.946-.117zm37.6-6.32v4.466h-7.298c-6.262 0-12.51 0-18.757-.175-2.393.19-3.955-2.306-4.685-4.247zM637.476 270.169c.102-42.331.394-84.545.365-126.818 0-27.559 0-55.132.117-82.691a121.665 121.665 0 0 1 .204-12.232 16.655 16.655 0 0 1 4.496-6q.715-.627 1.46-1.182l.788-.54a25.88 25.88 0 0 1 4.16-2.233c1.46-.57 2.846-1.08 4.306-1.46a39.835 39.835 0 0 1 8.963-1.664h2.277q1.138 0 2.277.088a8.393 8.393 0 0 1 6.627 4.028 9.05 9.05 0 0 1 .832 1.664q.131.453.233.92.102.467.16.934a13.385 13.385 0 0 1 0 3.78 13.137 13.137 0 0 1-2.014 5.256 11.882 11.882 0 0 1-1.167 1.46 11.298 11.298 0 0 1-1.46 1.284 81.436 81.436 0 0 1-7.707 5.021c-1.591.934-3.197 1.825-4.802 2.73a3.27 3.27 0 0 0-1.008.803 3.226 3.226 0 0 0-.248.35q0 4.029-.175 8.057-.175 4.03-.248 7.97c-.511 16.057-1.27 32.23-1.46 48.36q-.32 12.568-.7 25.15l-.76 25.165c-.467 11.167-.831 22.333-1.153 33.573q-.16 5.59-.306 11.166-.292 11.167-.599 22.333-.306 11.167-.7 22.334c-.482 15.18-.861 30.376-1.241 45.556q-.292 11.386-.598 22.772-.307 11.385-.687 22.77h-2.437a67.32 67.32 0 0 1-7.299 0c0-24.04-.394-48.067-.335-72.093.073-5.59-.278-11.094-.16-16.611zM944.55 402.956a63.321 63.321 0 0 0-30.755-15.064c-13.43-1.941-27.735-.817-39.923 5.43a63.73 63.73 0 0 0-24.552 93.289 65.16 65.16 0 0 0 26.581 22.362l1.24.555 2.293.89a23.355 23.355 0 0 0 5.24 1.591v.278c2.437.32 4.744 1.284 7.21 1.46a32.274 32.274 0 0 0 7.606.569l-.161.423h1.46l-.146-.657 1.46.613h1.663l-.116-.467a53.074 53.074 0 0 0 15.166-2.102c2.598-.876 5.27-1.547 7.795-2.671a63.89 63.89 0 0 0 17.954-106.63zm10.597 56.592a53.395 53.395 0 0 1-48.17 44.506c-5.02.803-10.1 0-15.078-.613l-2.525-.584c-1.314-.292-2.613-.657-3.897-1.022a56.68 56.68 0 0 1-28.96-22.494 52.695 52.695 0 0 1-8.131-25.544l-.263-.38a55.964 55.964 0 0 1 12.685-37.207 54.125 54.125 0 0 1 24.274-16.626c7.46-2.656 15.502-2.715 23.355-2.233a53.614 53.614 0 0 1 32.858 16.305 56.388 56.388 0 0 1 13.721 26.537 61.394 61.394 0 0 1 .131 19.355zm-16.056-24.77a37.85 37.85 0 0 1 2.656 21.515 39.966 39.966 0 0 1-15.151 25.69c-10.539 7.795-24.975 10.656-37.426 6.117-15.823-5.182-27.56-21.195-27.194-37.952-.716-20.042 16.48-38.726 36.492-39.893a39.718 39.718 0 0 1 22.96 4.685 38.857 38.857 0 0 1 17.663 19.837zM753.215 401.934a65.131 65.131 0 0 0-28.085-13.764 76.531 76.531 0 0 0-21.443-.701 61.16 61.16 0 0 0-36.827 17.983 64.416 64.416 0 0 0-17.677 31.909 72.984 72.984 0 0 0-.584 22.26c2.92 23.049 19.808 43.528 41.688 51.22 1.373.511 2.774.935 4.175 1.46 1.65.336 3.284.73 4.92 1.226 1.05.132 2.13.248 3.196.394a26.785 26.785 0 0 0 4.948.526 36.492 36.492 0 0 0 7.46.336v-.394a21.457 21.457 0 0 0 5.196-.453c1.05-.175 2.131-.292 3.197-.423a65.686 65.686 0 0 0 24.683-10.218 63.803 63.803 0 0 0 25.355-69.481 65.233 65.233 0 0 0-20.202-31.88zm6.948 72.313c-9.182 19.502-31.223 32.113-52.695 29.822-12.772-.614-24.917-6.759-33.909-15.692a52.446 52.446 0 0 1-15.166-43.221l-.16-.249a54.782 54.782 0 0 1 17.297-33.893 50.826 50.826 0 0 1 36.098-13.867 52.14 52.14 0 0 1 34.025 11.677 53.44 53.44 0 0 1 18.276 28.64 55.862 55.862 0 0 1-3.766 36.769zm-7.912-26.479a40.36 40.36 0 0 1-47.294 42.434 40.52 40.52 0 0 1-28.376-20.86 39.412 39.412 0 0 1-2.759-31.237c4.759-13.94 17.516-25.062 32.113-27.12a40.317 40.317 0 0 1 31.807 8.86 41.878 41.878 0 0 1 14.51 27.923zM603.684 421.144c-8.495 17.75-17.063 35.441-25.442 53.25-36.988.233-73.991 0-110.936.101q-101.346 0-202.692.117c-6.16-.088-12.349.248-18.494-.131a126.321 126.321 0 0 0-2.92-15.677 179.92 179.92 0 0 0-13.633-39.047 111.111 111.111 0 0 0-17.794-26.873 72.065 72.065 0 0 0-29.193-19.486 149.154 149.154 0 0 0-7.94-2.263c-3.052-.715-6.205-.7-9.285-1.153a191.89 191.89 0 0 0-20.304 0c-2.19.452-4.379.336-6.641.73a75.115 75.115 0 0 0-32.872 13.137 80.794 80.794 0 0 0-12.831 11.59 104.616 104.616 0 0 0-18.742 32.886 165.747 165.747 0 0 0-8.759 43.368c.117 1.357-1.78 1.24-2.7 1.46-7.298 0-14.597.525-21.997.306a24.348 24.348 0 0 1-14.977-8.758 30.376 30.376 0 0 1-5.255-17.998c0-10.627.905-21.253.716-31.88-.263-2.627 2.262-4.204 3.736-5.999a273.078 273.078 0 0 1 51.09-43.79c19.56-12.992 41.338-23.18 64.576-27.34 1.46-.292 2.832-.438 4.248-.628 2.35-.482 4.773-.321 7.123-.876a212.411 212.411 0 0 1 17.516 0c3.43.57 6.934.686 10.378 1.27 21.4 3.693 41.076 14.334 57.541 28.26 8.86 7.473 16.582 16.056 24.362 24.668 2.555 1.708 5.255 4.38 8.583 3.489 30.843-.365 61.701-.263 92.544-.453 3.474 0 6.934-.32 10.408-.116 27.354-.103 54.709 0 82.063 0 11.24-.088 22.465.116 33.69.16 5.123-.336 10.218.234 15.385 0 37.558.248 75.145 0 112.717.423-4.73 8.86-8.802 18.159-13.269 27.253zM30.816 372.872c-.423-6.7.453-13.37.745-20.056.7-6.67.773-13.415 2.145-19.998.453-2.715 1.066-6.101 4.058-7.123 9.985-4.452 20.436-7.882 30.741-11.37 9.81-3.227 19.619-6.482 29.486-9.518a29.909 29.909 0 0 1-2.525 3.357c-3.956 4.014-7.299 8.598-11.05 12.772a553.016 553.016 0 0 1-50.943 49.455c-.847.817-1.766 1.649-2.657 2.481z" transform="translate(-19741.458 -154022.4)"/><path style="fill:#fff;stroke:#000;stroke-width:5.83874;stroke-dasharray:none;stroke-opacity:1" d="M992.866 377.324a37.018 37.018 0 0 1 5.415-11.677c-6.496.598-13.05.204-19.56.306-86.778-.131-173.542.102-260.32-.087-32.2.116-64.416 0-96.617 0 .993-29.457 2.059-58.899 2.745-88.355.613-13.677.306-27.399.89-41.076.365-22.245.876-44.491.76-66.737-.074-13.867.13-27.734-.424-41.63 0-10.874-.788-21.735-.934-32.61l-.249-.379c0-4.758-.496-9.488-.86-14.246-.862-8.758-1.46-17.516-4.044-25.983-.19-.788-.613-2.014-1.679-1.751-16.056 1.299-31.952 3.196-47.819 5.605-14.976 2.175-29.938 4.613-44.769 7.736-46.33 9.474-91.96 23.136-134.787 43.411-42.827 20.275-83.29 47.47-115.403 82.823-17.355 19.224-32.405 40.871-42.476 64.766-1.62 3.795-2.672 7.795-4.19 11.678-3.27.598-6.612.802-9.867 1.576-22.45 4.978-44.55 11.386-66.635 17.764-13.414 3.985-26.858 7.81-40.127 12.262a152.917 152.917 0 0 1-14.494 19.224 312.618 312.618 0 0 1-18.495 20.129c-8.539 8.597-16.946 17.326-26.026 25.355-6.787 5.838-13.137 12.203-20.23 17.764a6.875 6.875 0 0 0-2.92 5.839c2.364-.394 3.766-2.482 5.474-3.956 6.276-5.561 12.538-11.167 19.15-16.32 20.436-15.53 42.872-28.974 67.526-36.491a155.135 155.135 0 0 1 28.04-5.84q7.138-.32 14.276-.583c3.445.525 6.977.219 10.437.613 2.831.453 5.692.715 8.51 1.27 25.398 4.627 48.578 18.115 67.145 35.762a204.356 204.356 0 0 1 18.976 20.29c17.254.219 34.522-.073 51.76-.146 6.7-.526 13.444-.16 20.159-.336 17.983-.131 35.966-.117 54.008-.263a10.393 10.393 0 0 1 4.219 0c2.248.117 4.48-.292 6.743-.146a18.509 18.509 0 0 1 3.635.146h1.941a25.515 25.515 0 0 1 7.299 0l2.51-.19a28.887 28.887 0 0 0 6.131 0c10.802.307 21.633 0 32.449.147 40.229.073 80.458.32 120.672.335 18.32.57 36.667.132 55.001-.116q-11.196 23.18-22.129 46.476c-5.342 10.933-10.218 22.07-15.808 32.916 4.919.277 9.853 0 14.786.087 7.693-.073 15.4.176 23.093-.13 0-1.913-.628-3.738-.789-5.635a66.562 66.562 0 0 1 1.358-23.355 77.699 77.699 0 0 1 29.72-46.477 74.356 74.356 0 0 1 33.572-13.691 80.779 80.779 0 0 1 39.908 4.306 79.115 79.115 0 0 1 49.746 84.88c5.838.19 11.677 0 17.516 0 5.59-.073 11.181.19 16.772-.175a49.63 49.63 0 0 1-.613-6.787c-.16-8.014-.073-16.188 2.248-23.925a82.428 82.428 0 0 1 15.166-30.084 80.954 80.954 0 0 1 32.113-23.778 81.742 81.742 0 0 1 39.586-4.627 78.516 78.516 0 0 1 56.125 36.375c6.686-2.92 13.138-6.204 19.794-9.21a13.998 13.998 0 0 0 5.065-2.92 40.871 40.871 0 0 1-1.285-9.225 50.315 50.315 0 0 1 1.11-10.948zM416.07 296.18c-1.883 2.219-5.007 1.708-7.59 1.869-7.167 0-14.32.16-21.487 0a6.423 6.423 0 0 1-6.35-7.78 15.575 15.575 0 0 1 2.686-3.81c2.788-.92 5.737-.643 8.612-.73 6.73 0 13.473-.117 20.202.233a5.532 5.532 0 0 1 4.861 2.613c.978 2.51 1.124 5.635-.934 7.605zm4.875-25.106a84.91 84.91 0 0 1-11.327 1.46c-6.276.875-12.582 1.561-18.874 2.276-14.757 2.16-29.573 3.766-44.36 5.737-17.705 2.175-35.382 4.554-53.088 6.685-1.606.336-3.24.438-4.832.745-3.27.38-6.524.759-9.78 1.226a41.586 41.586 0 0 0-5.517.628c-1.752.19-3.503.262-5.255.306.73-9.824 1.562-19.735 4.379-29.194 6.817-23.544 19.823-45.046 36.36-63.043 24.392-26.844 55.469-46.71 88.356-61.672 7.882-3.81 16.056-6.831 24.114-10.378q-.044 72.604-.22 145.224z" transform="translate(-19741.458 -154022.4)"/><path style="fill:#fff;stroke:#000;stroke-width:5.83874;stroke-dasharray:none;stroke-opacity:1" d="M205.643 400.737a69.977 69.977 0 0 0-32.887-18.815 81.742 81.742 0 0 0-25.939-1.46l-3.503.57c-20.83 3.153-39.163 16.99-49.38 35.178a70.707 70.707 0 0 0 .189 69.16 74.444 74.444 0 0 0 18.202 21.122 68.357 68.357 0 0 0 35.923 14.26c11.677.862 23.588-.247 34.42-4.816a70.152 70.152 0 0 0 42.17-50.286 69.277 69.277 0 0 0-1.197-34.405 74.955 74.955 0 0 0-17.998-30.508zM178.288 499.5a53.906 53.906 0 0 1-69.145-21.896 52.461 52.461 0 0 1-6.89-32.113 53.804 53.804 0 0 1 34.639-45.25 51.089 51.089 0 0 1 10.991-2.773c8.525-.73 17.341-.584 25.472 2.394a53.351 53.351 0 0 1 26.77 20.435 54.49 54.49 0 0 1 9.386 31.12 58.825 58.825 0 0 1-6.102 24.115 54.14 54.14 0 0 1-25.12 23.968zm13.765-57.089a37.105 37.105 0 0 1-26.055 43.952c-2.234.627-4.525.948-6.802 1.372a36.828 36.828 0 0 1-25.122-6.759 37.762 37.762 0 0 1-15.589-28.245 35.733 35.733 0 0 1 4.934-20.435 37.149 37.149 0 0 1 22.406-17.429c9.502-2.219 20.114-1.46 28.58 3.679a37.791 37.791 0 0 1 17.648 23.865z" transform="translate(-19741.458 -154022.4)"/></svg>